<?xml version="1.0" encoding="UTF-8" standalone="no"?>
<!-- Created with Inkscape (http://www.inkscape.org/) -->

<svg
   xmlns:dc="http://purl.org/dc/elements/1.1/"
   xmlns:cc="http://creativecommons.org/ns#"
   xmlns:rdf="http://www.w3.org/1999/02/22-rdf-syntax-ns#"
   xmlns:svg="http://www.w3.org/2000/svg"
   xmlns="http://www.w3.org/2000/svg"
   xmlns:sodipodi="http://sodipodi.sourceforge.net/DTD/sodipodi-0.dtd"
   xmlns:inkscape="http://www.inkscape.org/namespaces/inkscape"
   width="40.984161mm"
   height="53.316669mm"
   viewBox="0 0 40.984162 53.316669"
   version="1.1"
   id="svg1083"
   inkscape:version="0.92.4 (5da689c313, 2019-01-14)"
   sodipodi:docname="drawing.svg">
  <defs
     id="defs1077">
    <clipPath
       clipPathUnits="userSpaceOnUse"
       id="clipPath92">
      <path
         d="M 33.444,509.598 H 185.855 V 561.26 H 33.444 Z"
         id="path90"
         inkscape:connector-curvature="0" />
    </clipPath>
  </defs>
  <sodipodi:namedview
     id="base"
     pagecolor="#ffffff"
     bordercolor="#666666"
     borderopacity="1.0"
     inkscape:pageopacity="0.0"
     inkscape:pageshadow="2"
     inkscape:zoom="2.8"
     inkscape:cx="150.44677"
     inkscape:cy="123.10914"
     inkscape:document-units="mm"
     inkscape:current-layer="layer1"
     showgrid="false"
     fit-margin-top="0.2"
     fit-margin-right="0.2"
     fit-margin-bottom="0.2"
     fit-margin-left="0.2"
     inkscape:window-width="1920"
     inkscape:window-height="1001"
     inkscape:window-x="-9"
     inkscape:window-y="-9"
     inkscape:window-maximized="1" />
  <metadata
     id="metadata1080">
    <rdf:RDF>
      <cc:Work
         rdf:about="">
        <dc:format>image/svg+xml</dc:format>
        <dc:type
           rdf:resource="http://purl.org/dc/dcmitype/StillImage" />
        <dc:title></dc:title>
      </cc:Work>
    </rdf:RDF>
  </metadata>
  <g
     inkscape:label="Layer 1"
     inkscape:groupmode="layer"
     id="layer1"
     transform="translate(-109.22781,-88.954254)">
    <g
       id="g929"
       transform="matrix(1.0242861,0,0,-1.0242861,75.171581,664.04507)">
      <g
         id="g88"
         clip-path="url(#clipPath92)">
        <g
           id="g94"
           transform="translate(53.2539,509.598)">
          <path
             d="m 0,0 -6.793,3.69 c 0,0 -5.008,3.195 -6.011,4.188 -0.998,0.991 -7.006,6.596 -7.006,13.625 V 51.664 H 0 19.812 V 21.503 C 19.812,14.474 13.803,8.869 12.803,7.878 11.801,6.885 6.798,3.69 6.798,3.69 Z"
             style="fill:#ffffff;fill-opacity:1;fill-rule:nonzero;stroke:none"
             id="path96"
             inkscape:connector-curvature="0" />
        </g>
      </g>
      <path
         inkscape:connector-curvature="0"
         id="path98"
         style="fill:#2948a4;fill-opacity:1;fill-rule:nonzero;stroke:none"
         d="M 34.649,559.9 H 71.863 V 547.61 H 34.649 Z" />
      <path
         d="m 71.8623,547.61 h -37.214 v -16.388 -1.446 l 0.301,-1.175 0.505,-1.813 0.739,-1.68 0.876,-1.51 1.073,-1.644 0.974,-1.244 1.109,-1.242 1.005,-1.01 1.681,-1.274 1.577,-1.11 2.018,-1.375 6.748,-3.697 6.819,3.767 1.272,0.837 1.143,0.771 1.145,0.807 0.702,0.471 0.94,0.803 0.776,0.84 0.705,0.771 0.739,0.842 0.738,0.973 0.673,0.943 0.803,1.274 0.405,0.777 0.473,0.971 0.395,0.974 0.512,1.743 0.297,2.218 z"
         style="fill:#ffffff;fill-opacity:1;fill-rule:nonzero;stroke:none"
         id="path102"
         inkscape:connector-curvature="0" />
      <path
         d="m 47.3424,547.61 h 11.826 v -9.738 h 12.623 v -7.789 l -0.297,-1.719 -0.273,-0.903 -0.435,-0.876 h -11.618 v -12.288 l -6.049,-3.295 -5.777,3.156 v 12.427 h -11.756 l -0.601,1.681 -0.337,1.175 v 1.915 6.516 h 12.694 z"
         style="fill:#ed1c24;fill-opacity:1;fill-rule:nonzero;stroke:none"
         id="path106"
         inkscape:connector-curvature="0" />
      <path
         inkscape:connector-curvature="0"
         id="path108"
         style="fill:#231f20;fill-opacity:1;fill-rule:nonzero;stroke:none"
         d="m 34.648,547.346 h 37.143 v 0.529 H 34.648 Z" />
      <g
         transform="translate(35.0014,559.547)"
         id="g118">
        <path
           inkscape:connector-curvature="0"
           id="path120"
           style="fill:#231f20;fill-opacity:1;fill-rule:nonzero;stroke:none"
           d="m 0,0 v -28.19 c 0,-2.844 1.1,-7.323 6.341,-12.513 l 0.138,-0.137 c 0.907,-0.9 5.537,-3.885 5.584,-3.915 l 6.19,-3.388 6.212,3.401 c 0.025,0.017 4.657,3.002 5.56,3.903 l 0.128,0.127 c 5.252,5.183 6.355,9.67 6.355,12.522 V 0 Z m 18.253,-48.947 -6.551,3.586 c -0.215,0.137 -4.761,3.068 -5.721,4.022 l -0.137,0.135 c -5.413,5.361 -6.55,10.036 -6.55,13.014 V 0.706 h 37.92 V -28.19 c 0,-2.986 -1.139,-7.669 -6.565,-13.024 l -0.126,-0.125 c -0.955,-0.954 -5.505,-3.885 -5.698,-4.009 z" />
      </g>
      <g
         transform="translate(49.8122,527.592)"
         id="g122">
        <path
           inkscape:connector-curvature="0"
           id="path124"
           style="fill:#231f20;fill-opacity:1;fill-rule:nonzero;stroke:none"
           d="m 0,0 0.695,0.324 c 0,0 0.149,0.04 0.173,-0.046 0.024,-0.078 0.089,-0.275 0.105,-0.51 0.014,-0.24 0.16,-0.54 0.419,-0.677 0.659,-0.356 1.741,-0.255 1.898,-0.208 0.16,-0.06 1.256,-0.148 1.929,0.172 0.266,0.123 0.43,0.42 0.456,0.657 C 5.701,-0.05 5.78,0.141 5.807,0.218 5.834,0.3 5.984,0.254 5.984,0.254 L 6.661,-0.109 6.588,0.61 c 0,0 0.006,0.153 0.096,0.153 0.084,0 0.289,0.004 0.519,-0.062 C 7.434,0.647 7.764,0.691 7.98,0.893 8.515,1.407 8.757,2.467 8.758,2.636 8.863,2.767 9.287,3.783 9.192,4.526 9.155,4.814 8.929,5.062 8.712,5.157 8.491,5.258 8.332,5.389 8.268,5.441 8.202,5.495 8.29,5.622 8.29,5.622 L 8.843,6.151 8.081,6.297 c 0,0 -0.148,0.057 -0.122,0.137 C 7.99,6.511 8.05,6.708 8.181,6.907 8.31,7.105 8.368,7.435 8.241,7.7 7.912,8.368 6.965,8.925 6.802,8.978 6.707,9.117 5.858,9.834 5.112,9.971 4.819,10.025 4.509,9.883 4.348,9.708 4.183,9.53 4.007,9.42 3.936,9.375 3.867,9.334 3.771,9.453 3.771,9.453 L 3.432,10.147 3.061,9.476 c 0,0 -0.101,-0.118 -0.169,-0.068 C 2.827,9.456 2.657,9.574 2.509,9.762 2.357,9.944 2.058,10.102 1.765,10.064 1.031,9.962 0.214,9.246 0.114,9.112 -0.049,9.065 -0.989,8.495 -1.347,7.84 -1.488,7.58 -1.45,7.25 -1.33,7.043 -1.213,6.833 -1.163,6.635 -1.14,6.552 -1.118,6.476 -1.262,6.419 -1.262,6.419 l -0.752,-0.101 0.526,-0.56 c 0,0 0.077,-0.132 0.008,-0.179 C -1.548,5.528 -1.71,5.406 -1.934,5.317 -2.154,5.233 -2.397,4.995 -2.449,4.709 -2.581,3.976 -2.154,2.981 -2.058,2.839 -2.066,2.672 -1.809,1.604 -1.299,1.059 -1.097,0.843 -0.769,0.782 -0.533,0.831 -0.301,0.877 -0.094,0.86 -0.015,0.86 0.072,0.856 0.08,0.701 0.08,0.701 Z" />
      </g>
      <g
         transform="translate(53.2441,530.089)"
         id="g126">
        <path
           inkscape:connector-curvature="0"
           id="path128"
           style="fill:#ffffff;fill-opacity:1;fill-rule:nonzero;stroke:none"
           d="m 0,0 c 0,0 -0.261,0.01 -0.326,-0.228 -0.071,-0.236 0.105,-0.454 -0.066,-0.576 -0.174,-0.125 -0.109,-0.232 -0.345,-0.163 -0.241,0.073 -0.324,0.187 -0.395,0.371 -0.082,0.183 -0.234,0.313 -0.445,0.448 -0.196,0.16 -0.367,0.265 -0.561,0.287 -0.198,0.013 -0.323,0.063 -0.471,0.27 -0.136,0.207 -0.099,0.054 0,0.338 0.098,0.273 0.363,0.129 0.569,0.268 0.207,0.144 0.138,0.42 0.138,0.42 0,0 -0.167,0.301 -0.412,0.293 -0.25,-0.008 -0.394,-0.24 -0.569,-0.114 -0.17,0.126 -0.254,0.03 -0.262,0.281 -0.009,0.246 0.082,0.361 0.232,0.489 0.146,0.125 0.223,0.313 0.286,0.559 0.095,0.235 0.138,0.428 0.097,0.62 -0.046,0.193 -0.034,0.328 0.116,0.526 0.155,0.197 0.024,0.116 0.319,0.112 0.293,-0.01 0.235,-0.31 0.435,-0.46 0.198,-0.152 0.433,-0.003 0.433,-0.003 0,0 0.251,0.197 0.166,0.435 -0.08,0.234 -0.352,0.301 -0.287,0.505 0.071,0.198 -0.047,0.25 0.184,0.333 0.241,0.083 0.371,0.033 0.541,-0.061 C -0.457,4.844 -0.255,4.83 0,4.844 0.247,4.83 0.454,4.844 0.62,4.95 0.786,5.044 0.922,5.08 1.158,4.996 1.392,4.911 1.276,5.011 1.358,4.728 1.439,4.445 1.14,4.407 1.054,4.173 0.972,3.935 1.19,3.75 1.19,3.75 c 0,0 0.273,-0.198 0.47,-0.048 0.201,0.155 0.179,0.43 0.393,0.43 C 2.265,4.129 2.278,4.256 2.429,4.054 2.579,3.86 2.575,3.719 2.531,3.524 2.488,3.338 2.532,3.14 2.629,2.904 2.689,2.659 2.766,2.476 2.916,2.346 3.063,2.215 3.135,2.1 3.131,1.851 3.123,1.603 3.18,1.746 2.934,1.577 2.695,1.41 2.565,1.688 2.317,1.694 2.067,1.7 1.928,1.435 1.928,1.435 c 0,0 -0.067,-0.312 0.139,-0.453 C 2.272,0.839 2.53,0.944 2.592,0.742 2.655,0.539 2.779,0.569 2.638,0.366 2.501,0.162 2.36,0.117 2.164,0.101 1.971,0.086 1.794,-0.019 1.603,-0.182 1.391,-0.316 1.237,-0.447 1.16,-0.63 1.084,-0.81 0.995,-0.915 0.755,-0.987 0.517,-1.055 0.671,-1.069 0.434,-0.888 0.2,-0.709 0.42,-0.498 0.354,-0.26 0.285,-0.019 0,0 0,0" />
      </g>
      <g
         transform="translate(53.3097,545.443)"
         id="g130">
        <path
           inkscape:connector-curvature="0"
           id="path132"
           style="fill:#fab446;fill-opacity:1;fill-rule:nonzero;stroke:none"
           d="m 0,0 -0.502,0.088 0.084,-0.473 -0.507,0.052 v -0.722 l 0.507,0.134 0.166,-0.24 0.101,-0.097 v -0.239 c 0,0 -0.215,-0.016 -0.267,-0.113 -0.054,-0.103 0,0 0,0 0,0 -2.256,0.201 -4.066,-1.143 l -0.118,-0.353 c 0,0 1.192,0.857 3.982,0.975 l 0.015,-0.202 c 0,0 -2.586,-0.034 -4.131,-1.09 l -0.05,-0.388 c 0,0 1.442,0.891 4.151,0.939 l 0.133,-0.017 0.136,-0.1 0.046,-0.133 -0.234,-0.104 -0.319,-0.046 -0.236,0.065 0.016,-0.469 0.085,-0.504 0.049,-0.268 v -0.285 l 0.239,0.2 0.264,0.049 0.121,-0.033 c 0,0 0,-0.116 0.015,-0.284 0.021,-0.169 -0.066,-0.452 -0.066,-0.452 L -0.67,-5.456 c 0,0 -0.405,-0.118 -0.573,-0.035 -0.171,0.082 -0.416,0.32 -0.416,0.708 0,0.384 0.095,0.15 0.095,0.15 l 0.166,-0.053 h 0.124 l -0.018,0.238 -0.106,0.386 -0.195,0.172 -0.172,-0.172 c 0,0 -0.081,0.79 -0.753,0.755 0,0 -0.219,-0.675 0.101,-1.226 l -0.303,-0.017 -0.083,-0.285 0.234,-0.418 0.185,-0.121 0.133,0.29 0.018,0.165 c 0,0 0.069,0.037 0.134,-0.051 0.069,-0.082 0.253,-0.775 0.015,-0.94 -0.236,-0.167 -0.383,-0.215 -0.59,-0.133 -0.197,0.082 -1.053,0.337 -0.917,0.89 l 0.066,0.148 0.216,-0.047 0.136,-0.051 0.015,0.184 c 0,0 -0.236,0.89 -0.754,0.574 l -0.052,0.455 -0.084,0.214 -0.452,-0.197 -0.138,-0.138 1.751,-3.56 c 0,0 1.06,0.621 2.887,0.621 1.831,0 2.889,-0.621 2.889,-0.621 L 4.633,-4.011 4.501,-3.873 4.047,-3.676 3.964,-3.89 3.917,-4.345 C 3.391,-4.029 3.16,-4.919 3.16,-4.919 l 0.013,-0.184 0.134,0.051 0.22,0.047 0.068,-0.148 C 3.727,-5.706 2.868,-5.961 2.67,-6.043 2.466,-6.125 2.316,-6.077 2.08,-5.91 c -0.233,0.165 -0.047,0.858 0.016,0.94 0.07,0.088 0.137,0.051 0.137,0.051 l 0.018,-0.165 0.134,-0.29 0.184,0.121 0.234,0.418 -0.085,0.285 -0.303,0.017 c 0.319,0.551 0.101,1.226 0.101,1.226 C 1.847,-3.272 1.76,-4.062 1.76,-4.062 L 1.595,-3.89 1.392,-4.062 1.292,-4.448 1.274,-4.686 h 0.118 l 0.17,0.053 c 0,0 0.099,0.234 0.099,-0.15 0,-0.388 -0.249,-0.626 -0.42,-0.708 -0.166,-0.083 -0.57,0.035 -0.57,0.035 l -0.282,0.203 c 0,0 -0.087,0.283 -0.073,0.452 0.023,0.168 0.023,0.284 0.023,0.284 l 0.113,0.033 0.268,-0.049 0.237,-0.2 v 0.285 l 0.049,0.268 0.087,0.504 0.015,0.469 -0.236,-0.065 -0.318,0.046 -0.238,0.104 0.053,0.133 0.135,0.1 0.134,0.017 C 3.342,-2.92 4.786,-3.811 4.786,-3.811 l -0.049,0.388 c -1.548,1.056 -4.132,1.09 -4.132,1.09 L 0.62,-2.131 C 3.409,-2.249 4.602,-3.106 4.602,-3.106 L 4.484,-2.753 C 2.67,-1.409 0.417,-1.61 0.417,-1.61 c 0,0 0.052,-0.103 0,0 -0.048,0.097 -0.265,0.113 -0.265,0.113 v 0.239 l 0.1,0.097 0.165,0.24 0.505,-0.134 v 0.722 L 0.417,-0.385 0.504,0.088 Z" />
      </g>
      <g
         transform="translate(58.6812,528.941)"
         id="g134">
        <path
           inkscape:connector-curvature="0"
           id="path136"
           style="fill:#fab446;fill-opacity:1;fill-rule:nonzero;stroke:none"
           d="m 0,0 1.466,-1.698 -1.95,0.955 z" />
      </g>
      <g
         transform="translate(58.8166,535.039)"
         id="g138">
        <path
           inkscape:connector-curvature="0"
           id="path140"
           style="fill:#fab446;fill-opacity:1;fill-rule:nonzero;stroke:none"
           d="M 0,0 4.871,1.554 0.383,-0.945 Z" />
      </g>
      <g
         transform="translate(59.4967,532.604)"
         id="g142">
        <path
           inkscape:connector-curvature="0"
           id="path144"
           style="fill:#fab446;fill-opacity:1;fill-rule:nonzero;stroke:none"
           d="M 0,0 5.095,-0.468 -0.009,-1.015 Z" />
      </g>
      <g
         transform="translate(59.2672,530.273)"
         id="g146">
        <path
           inkscape:connector-curvature="0"
           id="path148"
           style="fill:#fab446;fill-opacity:1;fill-rule:nonzero;stroke:none"
           d="m 0,0 4.421,-2.575 -4.805,1.59 z" />
      </g>
      <g
         transform="translate(59.3402,533.677)"
         id="g150">
        <path
           inkscape:connector-curvature="0"
           id="path152"
           style="fill:#fab446;fill-opacity:1;fill-rule:nonzero;stroke:none"
           d="M 0,0 1.676,0.131 0.132,-0.659 Z" />
      </g>
      <g
         transform="translate(59.472,531.238)"
         id="g154">
        <path
           inkscape:connector-curvature="0"
           id="path156"
           style="fill:#fab446;fill-opacity:1;fill-rule:nonzero;stroke:none"
           d="m 0,0 1.595,-0.776 -1.733,0.091 z" />
      </g>
      <g
         transform="translate(47.5767,529.146)"
         id="g158">
        <path
           inkscape:connector-curvature="0"
           id="path160"
           style="fill:#fab446;fill-opacity:1;fill-rule:nonzero;stroke:none"
           d="m 0,0 -4.867,-1.554 4.485,2.498 z" />
      </g>
      <g
         transform="translate(46.9017,531.577)"
         id="g162">
        <path
           inkscape:connector-curvature="0"
           id="path164"
           style="fill:#fab446;fill-opacity:1;fill-rule:nonzero;stroke:none"
           d="M 0,0 -5.095,0.466 0.01,1.018 Z" />
      </g>
      <g
         transform="translate(47.1315,533.91)"
         id="g166">
        <path
           inkscape:connector-curvature="0"
           id="path168"
           style="fill:#fab446;fill-opacity:1;fill-rule:nonzero;stroke:none"
           d="M 0,0 -4.421,2.573 0.383,0.983 Z" />
      </g>
      <g
         transform="translate(47.0618,530.511)"
         id="g170">
        <path
           inkscape:connector-curvature="0"
           id="path172"
           style="fill:#fab446;fill-opacity:1;fill-rule:nonzero;stroke:none"
           d="m 0,0 -1.677,-0.135 1.542,0.788 z" />
      </g>
      <g
         transform="translate(46.9267,532.946)"
         id="g174">
        <path
           inkscape:connector-curvature="0"
           id="path176"
           style="fill:#fab446;fill-opacity:1;fill-rule:nonzero;stroke:none"
           d="M 0,0 -1.592,0.771 0.139,0.683 Z" />
      </g>
      <g
         transform="translate(55.9484,526.457)"
         id="g178">
        <path
           inkscape:connector-curvature="0"
           id="path180"
           style="fill:#fab446;fill-opacity:1;fill-rule:nonzero;stroke:none"
           d="m 0,0 1.562,-4.868 -2.501,4.483 z" />
      </g>
      <g
         transform="translate(53.5185,525.775)"
         id="g182">
        <path
           inkscape:connector-curvature="0"
           id="path184"
           style="fill:#fab446;fill-opacity:1;fill-rule:nonzero;stroke:none"
           d="M 0,0 -0.467,-5.096 -1.016,0.012 Z" />
      </g>
      <g
         transform="translate(51.1848,526.006)"
         id="g186">
        <path
           inkscape:connector-curvature="0"
           id="path188"
           style="fill:#fab446;fill-opacity:1;fill-rule:nonzero;stroke:none"
           d="m 0,0 -2.574,-4.417 1.591,4.8 z" />
      </g>
      <g
         transform="translate(54.5862,525.938)"
         id="g190">
        <path
           inkscape:connector-curvature="0"
           id="path192"
           style="fill:#fab446;fill-opacity:1;fill-rule:nonzero;stroke:none"
           d="m 0,0 0.137,-1.682 -0.791,1.546 z" />
      </g>
      <g
         transform="translate(52.1512,525.802)"
         id="g194">
        <path
           inkscape:connector-curvature="0"
           id="path196"
           style="fill:#fab446;fill-opacity:1;fill-rule:nonzero;stroke:none"
           d="m 0,0 -0.774,-1.59 0.093,1.734 z" />
      </g>
      <g
         transform="translate(48.9626,527.353)"
         id="g198">
        <path
           inkscape:connector-curvature="0"
           id="path200"
           style="fill:#fab446;fill-opacity:1;fill-rule:nonzero;stroke:none"
           d="m 0,0 -1.732,-1.003 1.175,1.578 z" />
      </g>
      <g
         transform="translate(48.1111,528.244)"
         id="g202">
        <path
           inkscape:connector-curvature="0"
           id="path204"
           style="fill:#fab446;fill-opacity:1;fill-rule:nonzero;stroke:none"
           d="m 0,0 -2.004,-0.732 1.642,1.326 z" />
      </g>
      <g
         transform="translate(49.8841,526.585)"
         id="g206">
        <path
           inkscape:connector-curvature="0"
           id="path208"
           style="fill:#fab446;fill-opacity:1;fill-rule:nonzero;stroke:none"
           d="m 0,0 -1.6,-1.41 0.96,1.952 z" />
      </g>
      <g
         transform="translate(57.9671,527.919)"
         id="g210">
        <path
           inkscape:connector-curvature="0"
           id="path212"
           style="fill:#fab446;fill-opacity:1;fill-rule:nonzero;stroke:none"
           d="m 0,0 1.003,-1.734 -1.576,1.175 z" />
      </g>
      <g
         transform="translate(57.079,527.066)"
         id="g214">
        <path
           inkscape:connector-curvature="0"
           id="path216"
           style="fill:#fab446;fill-opacity:1;fill-rule:nonzero;stroke:none"
           d="m 0,0 0.733,-2.008 -1.334,1.642 z" />
      </g>
      <g
         transform="translate(57.4098,536.917)"
         id="g218">
        <path
           inkscape:connector-curvature="0"
           id="path220"
           style="fill:#fab446;fill-opacity:1;fill-rule:nonzero;stroke:none"
           d="M 0,0 1.731,1 0.557,-0.579 Z" />
      </g>
      <g
         transform="translate(58.2569,536.022)"
         id="g222">
        <path
           inkscape:connector-curvature="0"
           id="path224"
           style="fill:#fab446;fill-opacity:1;fill-rule:nonzero;stroke:none"
           d="M 0,0 2.012,0.734 0.367,-0.596 Z" />
      </g>
      <g
         transform="translate(56.4909,537.682)"
         id="g226">
        <path
           inkscape:connector-curvature="0"
           id="path228"
           style="fill:#fab446;fill-opacity:1;fill-rule:nonzero;stroke:none"
           d="M 0,0 1.594,1.409 0.64,-0.541 Z" />
      </g>
      <g
         transform="translate(48.3449,536.29)"
         id="g230">
        <path
           inkscape:connector-curvature="0"
           id="path232"
           style="fill:#fab446;fill-opacity:1;fill-rule:nonzero;stroke:none"
           d="M 0,0 -1.001,1.731 0.582,0.558 Z" />
      </g>
      <g
         transform="translate(49.2392,537.14)"
         id="g234">
        <path
           inkscape:connector-curvature="0"
           id="path236"
           style="fill:#fab446;fill-opacity:1;fill-rule:nonzero;stroke:none"
           d="M 0,0 -0.734,2.006 0.595,0.362 Z" />
      </g>
      <g
         transform="translate(47.6656,535.252)"
         id="g238">
        <path
           inkscape:connector-curvature="0"
           id="path240"
           style="fill:#fab446;fill-opacity:1;fill-rule:nonzero;stroke:none"
           d="M 0,0 -1.498,1.713 0.451,0.756 Z" />
      </g>
      <g
         transform="translate(53.2441,533.738)"
         id="g242">
        <path
           inkscape:connector-curvature="0"
           id="path244"
           style="fill:#fab446;fill-opacity:1;fill-rule:nonzero;stroke:none"
           d="M 0,0 -0.489,-0.97 -1.413,-1.091 -0.722,-1.759 -0.942,-2.82 0,-2.214 0.937,-2.82 0.721,-1.759 1.411,-1.091 0.483,-0.97 Z" />
      </g>
      <g
         transform="translate(47.607,537.608)"
         id="g246">
        <path
           inkscape:connector-curvature="0"
           id="path248"
           style="fill:#231f20;fill-opacity:1;fill-rule:nonzero;stroke:none"
           d="m 0,0 h -12.958 v 0.529 h 12.429 v 9.474 H 0 Z M 24.184,0 H 11.296 v 10.003 h 0.53 V 0.529 H 24.184 Z M 11.826,-23.31 h -0.53 v 12.552 H 23.18 v -0.529 H 11.826 Z M 0,-23.449 h -0.529 v 12.162 h -11.354 v 0.529 H 0 Z" />
      </g>
      <g
         transform="translate(43.6102,558.895)"
         id="g250">
        <path
           inkscape:connector-curvature="0"
           id="path252"
           style="fill:#fab446;fill-opacity:1;fill-rule:nonzero;stroke:none"
           d="m 0,0 -0.687,-0.712 -0.049,-6.552 c 0,0 0.552,-0.662 2.429,-0.809 1.878,-0.148 5.228,0.441 5.228,0.441 l 1.668,-0.147 0.466,-0.196 -0.049,-0.418 0.062,-0.539 0.307,-0.393 0.846,0.025 0.294,0.368 -0.012,0.613 -0.024,0.295 0.712,0.27 0.564,0.074 1.717,-0.025 1.644,-0.319 2.112,-0.098 c 0,0 1.3,0.06 1.864,0.22 0.564,0.16 0.958,0.392 0.958,0.392 l 0.22,0.271 -0.025,6.355 L 19.509,0 19.436,-1.521 19.534,-6.209 19.509,-6.797 18.724,-7.116 15.338,-7.141 12.81,-6.969 11.46,-7.116 10.479,-7.51 9.742,-8.024 l -1.276,0.908 -1.914,0.239 -3.95,-0.338 -1.62,0.05 -1.031,0.416 z" />
      </g>
      <g
         transform="translate(53.3256,550.642)"
         id="g254">
        <path
           inkscape:connector-curvature="0"
           id="path256"
           style="fill:#231f20;fill-opacity:1;fill-rule:nonzero;stroke:none"
           d="M 0,0 C -0.046,0 -0.09,0.015 -0.127,0.043 -0.494,0.321 -0.292,0.455 -1.11,0.865 -1.631,1.127 -2.481,1.211 -3.115,1.211 -3.651,1.211 -4.261,1.169 -4.93,1.088 -5.814,0.98 -6.611,0.926 -7.301,0.926 c -1.759,0 -2.288,0.349 -2.341,0.389 L -9.799,1.39 c -0.072,0.035 -0.116,0.108 -0.116,0.188 l 0.033,6.677 c 10e-4,0.082 0.048,0.155 0.122,0.189 0.073,0.035 0.16,0.023 0.222,-0.03 0.244,-0.205 0.389,-0.338 0.427,-0.393 0.098,-0.074 0.871,-0.486 2.154,-0.486 0.593,0 1.224,0.087 1.874,0.257 0.48,0.125 0.979,0.19 1.483,0.19 2.103,0 3.655,-1.082 3.719,-1.128 C 0.175,6.814 0.208,6.751 0.208,6.683 V 0.21 C 0.208,0.13 0.164,0.058 0.092,0.022 0.061,0.008 0.03,0 0,0" />
      </g>
      <g
         transform="translate(53.4372,550.642)"
         id="g258">
        <path
           inkscape:connector-curvature="0"
           id="path260"
           style="fill:#231f20;fill-opacity:1;fill-rule:nonzero;stroke:none"
           d="M 0,0 C -0.032,0 -0.063,0.008 -0.093,0.022 -0.164,0.058 -0.21,0.13 -0.21,0.21 v 6.473 c 0,0.068 0.034,0.131 0.09,0.171 0.065,0.046 1.617,1.128 3.718,1.128 0.505,0 1.003,-0.065 1.483,-0.19 0.651,-0.17 1.282,-0.257 1.875,-0.257 1.284,0 2.056,0.412 2.179,0.515 0.013,0.026 0.157,0.159 0.402,0.364 0.062,0.053 0.15,0.065 0.222,0.03 C 9.833,8.41 9.879,8.337 9.881,8.255 L 9.914,1.578 C 9.914,1.498 9.87,1.425 9.799,1.39 L 9.612,1.296 C 9.587,1.275 9.059,0.926 7.3,0.926 6.609,0.926 5.811,0.98 4.93,1.088 4.26,1.169 3.65,1.211 3.115,1.211 2.479,1.211 1.411,1.046 1.039,0.837 0.314,0.428 0.514,0.337 0.127,0.043 0.089,0.015 0.045,0 0,0" />
      </g>
      <g
         transform="translate(38.9584,551.029)"
         id="g262">
        <path
           inkscape:connector-curvature="0"
           id="path264"
           style="fill:#231f20;fill-opacity:1;fill-rule:nonzero;stroke:none"
           d="m 0,0 v 0 c -0.183,0 -0.298,0.147 -0.329,0.294 -0.028,0.105 -0.147,0.423 -0.342,0.534 -0.277,0.158 -0.32,0.438 -0.299,0.607 -0.005,0.029 -0.008,0.058 -0.005,0.08 0.017,0.131 0.115,0.26 0.301,0.392 0.183,0.133 0.327,0.462 0.362,0.567 0.071,0.203 0.368,0.364 0.621,0.138 C 0.364,2.564 0.409,2.517 0.45,2.474 0.559,2.359 0.597,2.32 0.739,2.32 L 1.417,2.319 2.832,2.32 H 2.834 C 2.891,2.32 2.943,2.298 2.983,2.258 3.021,2.219 3.043,2.166 3.043,2.111 L 3.032,0.63 C 3.03,0.515 2.951,0.409 2.822,0.425 2.82,0.425 0.966,0.438 0.738,0.426 0.609,0.419 0.542,0.363 0.351,0.186 L 0.3,0.138 C 0.2,0.045 0.101,0 0,0" />
      </g>
      <g
         transform="translate(38.96,554.297)"
         id="g266">
        <path
           inkscape:connector-curvature="0"
           id="path268"
           style="fill:#231f20;fill-opacity:1;fill-rule:nonzero;stroke:none"
           d="M 0,0 V 0 C -0.185,0 -0.299,0.148 -0.331,0.295 -0.358,0.4 -0.478,0.719 -0.673,0.83 c -0.275,0.156 -0.318,0.44 -0.299,0.604 -0.005,0.029 -0.007,0.057 -0.005,0.079 0.016,0.132 0.114,0.261 0.301,0.395 0.183,0.132 0.328,0.463 0.363,0.568 0.071,0.204 0.367,0.361 0.62,0.138 C 0.362,2.565 0.407,2.518 0.448,2.475 0.558,2.359 0.594,2.321 0.737,2.321 L 1.415,2.32 2.832,2.321 H 2.833 C 2.887,2.321 2.942,2.299 2.981,2.26 3.019,2.221 3.042,2.167 3.042,2.112 L 3.03,0.633 C 3.029,0.52 2.935,0.428 2.821,0.428 H 2.82 C 2.82,0.427 0.958,0.438 0.733,0.429 0.605,0.422 0.538,0.363 0.342,0.178 L 0.299,0.138 C 0.197,0.045 0.1,0 0,0" />
      </g>
      <g
         transform="translate(67.8034,551.029)"
         id="g270">
        <path
           inkscape:connector-curvature="0"
           id="path272"
           style="fill:#231f20;fill-opacity:1;fill-rule:nonzero;stroke:none"
           d="m 0,0 c -0.102,0 -0.199,0.045 -0.299,0.138 l -0.052,0.048 c -0.191,0.177 -0.257,0.233 -0.384,0.239 -0.236,0.014 -2.086,0 -2.086,0 h -0.002 c -0.114,0 -0.207,0.091 -0.209,0.205 l -0.011,1.481 c 0,0.055 0.022,0.108 0.06,0.147 0.04,0.04 0.093,0.062 0.148,0.062 h 10e-4 l 1.417,-10e-4 0.678,10e-4 c 0.143,0 0.179,0.039 0.29,0.154 0.04,0.043 0.085,0.09 0.14,0.138 0.252,0.227 0.55,0.065 0.621,-0.136 C 0.351,2.361 0.491,2.04 0.676,1.906 0.86,1.775 0.958,1.646 0.975,1.515 0.978,1.493 0.976,1.464 0.97,1.435 0.992,1.266 0.949,0.986 0.671,0.828 0.475,0.717 0.354,0.391 0.327,0.287 0.298,0.147 0.184,0 0,0" />
      </g>
      <g
         transform="translate(67.8013,554.297)"
         id="g274">
        <path
           inkscape:connector-curvature="0"
           id="path276"
           style="fill:#231f20;fill-opacity:1;fill-rule:nonzero;stroke:none"
           d="M 0,0 C -0.1,0 -0.198,0.045 -0.298,0.137 L -0.342,0.178 C -0.536,0.363 -0.605,0.422 -0.735,0.429 -0.954,0.438 -2.82,0.427 -2.82,0.428 v 0 c -0.115,0 -0.208,0.092 -0.209,0.205 l -0.012,1.479 c 0,0.055 0.022,0.109 0.06,0.148 0.04,0.039 0.093,0.061 0.149,0.061 l 1.417,-0.001 0.678,0.001 c 0.144,0 0.181,0.038 0.29,0.154 0.04,0.043 0.085,0.09 0.138,0.137 C -0.05,2.84 0.243,2.679 0.313,2.479 0.352,2.363 0.494,2.039 0.677,1.908 0.863,1.774 0.961,1.645 0.976,1.513 0.98,1.491 0.978,1.463 0.971,1.434 0.991,1.27 0.949,0.986 0.673,0.83 0.478,0.719 0.36,0.4 0.329,0.287 0.3,0.148 0.186,0 0,0" />
      </g>
      <g
         transform="translate(53.8976,548.519)"
         id="g278">
        <path
           inkscape:connector-curvature="0"
           id="path280"
           style="fill:#231f20;fill-opacity:1;fill-rule:nonzero;stroke:none"
           d="M 0,0 C -0.238,0 -0.414,0.024 -0.414,0.024 L -0.644,0.023 C -0.646,0.021 -0.812,0 -1.034,0 -2.171,0 -2.38,0.521 -2.404,0.831 -2.413,0.962 -2.391,1.079 -2.35,1.18 l -9.746,-0.172 c -0.067,-0.013 -0.111,0.021 -0.149,0.06 -0.041,0.039 -0.064,0.094 -0.064,0.15 l 0.045,7.567 c 0.008,0.085 0.066,0.158 0.146,0.183 -0.002,0 0.117,0.055 0.316,0.29 0.297,0.348 0.528,0.493 0.546,0.5 0.065,0.02 0.137,0.008 0.192,-0.034 0.054,-0.042 0.085,-0.107 0.081,-0.176 l -0.01,-0.186 -0.02,-6.201 c 0.136,-0.139 0.772,-0.822 2.833,-0.822 0.777,0 1.888,0.075 2.884,0.224 0.866,0.136 1.632,0.204 2.274,0.204 1.597,0 1.885,-0.251 1.954,-0.351 0.047,-0.067 0.057,-0.155 0.025,-0.231 L -1.113,2.011 C -1.143,1.957 -1.266,1.756 -1.1,1.403 c 0.097,-0.207 0.315,-0.265 0.475,-0.281 0.01,0.003 0.02,0.003 0.029,0.003 h 0.159 0.013 c 0.187,0.015 0.395,0.076 0.492,0.278 0.165,0.353 0.04,0.554 0.035,0.563 L 0.009,2.185 c -0.032,0.076 -0.02,0.164 0.026,0.231 0.067,0.1 0.338,0.365 1.936,0.365 0.642,0 1.406,-0.069 2.274,-0.204 0.994,-0.148 1.894,-0.224 2.67,-0.224 2.05,0 2.863,0.664 3.004,0.81 L 9.89,9.548 c -0.003,0.069 0.027,0.134 0.082,0.176 0.055,0.042 0.126,0.054 0.192,0.034 0.018,-0.007 0.308,-0.152 0.604,-0.5 0.205,-0.241 0.324,-0.293 0.325,-0.293 0.072,-0.031 0.13,-0.101 0.136,-0.18 l 0.016,-0.182 0.03,-7.385 c 0,-0.056 -0.022,-0.111 -0.062,-0.15 C 11.172,1.029 11.109,0.992 11.062,1.008 L 1.317,1.18 C 1.357,1.079 1.381,0.962 1.371,0.831 1.347,0.521 1.138,0 0,0" />
      </g>
      <g
         transform="translate(52.4179,551.743)"
         id="g282">
        <path
           inkscape:connector-curvature="0"
           id="path284"
           style="fill:#ffffff;fill-opacity:1;fill-rule:nonzero;stroke:none"
           d="M 0,0 C 0.072,-0.022 0.216,-0.113 0.863,-0.472 V 5.47 C 0.348,5.69 -0.999,6.464 -2.692,6.464 -3.16,6.464 -3.624,6.404 -4.069,6.288 -4.754,6.108 -5.42,6.017 -6.05,6.017 c -1.499,0 -2.518,0.528 -2.612,0.663 -0.003,0.003 -0.008,0.009 -0.013,0.014 l -0.031,-6.22 0.07,-0.035 c 0.031,-0.019 0.629,-0.326 2.242,-0.326 0.675,0 1.454,0.053 2.32,0.158 C -2.15,0.504 -0.732,0.409 0,0" />
      </g>
      <g
         transform="translate(38.2496,552.502)"
         id="g286">
        <path
           inkscape:connector-curvature="0"
           id="path288"
           style="fill:#fab446;fill-opacity:1;fill-rule:nonzero;stroke:none"
           d="M 0,0 C 0.002,-0.026 0.001,-0.051 -0.004,-0.077 -0.007,-0.099 -0.026,-0.232 0.094,-0.3 0.43,-0.49 0.598,-0.894 0.661,-1.085 l 0.017,0.014 c 0.224,0.209 0.4,0.374 0.716,0.387 0.192,0.011 1.408,0.005 1.955,0.002 L 3.358,-0.145 3.356,0.481 2.164,0.48 1.415,0.481 C 1.064,0.483 0.906,0.648 0.768,0.793 0.74,0.824 0.707,0.857 0.672,0.89 0.605,0.722 0.426,0.326 0.13,0.113 0.056,0.06 0.017,0.022 0,0" />
      </g>
      <g
         transform="translate(38.2496,555.769)"
         id="g290">
        <path
           inkscape:connector-curvature="0"
           id="path292"
           style="fill:#fab446;fill-opacity:1;fill-rule:nonzero;stroke:none"
           d="M 0,0 C 0.002,-0.026 0.001,-0.052 -0.004,-0.078 -0.007,-0.099 -0.026,-0.23 0.095,-0.298 0.431,-0.49 0.6,-0.895 0.662,-1.085 l 0.005,0.005 c 0.227,0.215 0.407,0.384 0.725,0.401 0.205,0.007 1.458,0.002 2.004,0.001 l 0.008,0.535 V 0.483 L 2.164,0.482 1.415,0.483 C 1.063,0.483 0.904,0.649 0.766,0.796 0.736,0.826 0.706,0.859 0.67,0.892 0.605,0.725 0.426,0.325 0.13,0.114 0.055,0.061 0.017,0.022 0,0" />
      </g>
      <g
         transform="translate(51.8558,555.806)"
         id="g294">
        <path
           inkscape:connector-curvature="0"
           id="path296"
           style="fill:#66686e;fill-opacity:1;fill-rule:nonzero;stroke:none"
           d="M 0,0 C -0.884,0.4 -1.983,0.899 -3.649,0.462 -4.687,0.19 -6.068,0.018 -6.829,0.347 l 0.166,0.384 c 0.547,-0.237 1.689,-0.184 2.908,0.136 1.809,0.476 3.033,-0.08 3.926,-0.487 z" />
      </g>
      <g
         transform="translate(51.8558,554.059)"
         id="g298">
        <path
           inkscape:connector-curvature="0"
           id="path300"
           style="fill:#66686e;fill-opacity:1;fill-rule:nonzero;stroke:none"
           d="M 0,0 C -0.884,0.4 -1.983,0.899 -3.649,0.463 -4.687,0.191 -6.068,0.017 -6.829,0.346 l 0.166,0.384 c 0.547,-0.236 1.689,-0.183 2.908,0.136 1.809,0.477 3.033,-0.08 3.926,-0.486 z" />
      </g>
      <g
         transform="translate(51.8558,552.594)"
         id="g302">
        <path
           inkscape:connector-curvature="0"
           id="path304"
           style="fill:#66686e;fill-opacity:1;fill-rule:nonzero;stroke:none"
           d="M 0,0 C -0.884,0.401 -1.983,0.899 -3.649,0.464 -4.687,0.19 -6.068,0.019 -6.829,0.347 l 0.166,0.383 c 0.547,-0.236 1.689,-0.184 2.908,0.137 1.809,0.476 3.033,-0.081 3.926,-0.487 z" />
      </g>
      <g
         transform="translate(53.4994,557.213)"
         id="g306">
        <path
           inkscape:connector-curvature="0"
           id="path308"
           style="fill:#ffffff;fill-opacity:1;fill-rule:nonzero;stroke:none"
           d="m 0,0 v -5.942 c 0.627,0.36 0.772,0.449 0.844,0.472 0.764,0.415 2.165,0.502 4.073,0.271 0.867,-0.106 1.648,-0.158 2.321,-0.158 1.614,0 2.189,0.403 2.195,0.407 l 0.096,0.048 -0.03,6.221 C 9.491,1.312 9.485,1.305 9.481,1.3 9.392,1.172 8.392,0.546 6.894,0.546 6.265,0.546 5.598,0.638 4.913,0.817 4.468,0.934 4.005,0.992 3.536,0.994 1.664,0.998 0,0 0,0" />
      </g>
      <g
         transform="translate(66.3996,551.825)"
         id="g310">
        <path
           inkscape:connector-curvature="0"
           id="path312"
           style="fill:#fab446;fill-opacity:1;fill-rule:nonzero;stroke:none"
           d="M 0,0 C 0.347,0 0.637,-0.002 0.721,-0.007 1.034,-0.019 1.21,-0.185 1.435,-0.394 L 1.451,-0.409 C 1.517,-0.212 1.685,0.188 2.019,0.378 2.147,0.451 2.116,0.598 2.116,0.6 2.111,0.626 2.11,0.651 2.113,0.677 2.095,0.699 2.057,0.736 1.983,0.789 1.685,1.004 1.504,1.405 1.44,1.572 1.402,1.532 1.373,1.5 1.345,1.47 1.206,1.325 1.049,1.16 0.697,1.158 l -0.748,-10e-4 -1.19,10e-4 0.01,-1.164 C -0.917,-0.004 -0.473,0 0,0" />
      </g>
      <g
         transform="translate(66.3989,555.094)"
         id="g314">
        <path
           inkscape:connector-curvature="0"
           id="path316"
           style="fill:#fab446;fill-opacity:1;fill-rule:nonzero;stroke:none"
           d="M 0,0 C 0.347,0 0.634,-0.002 0.718,-0.004 1.04,-0.02 1.219,-0.19 1.446,-0.405 L 1.451,-0.41 C 1.518,-0.212 1.686,0.188 2.019,0.378 2.138,0.445 2.121,0.576 2.116,0.601 2.112,0.625 2.111,0.65 2.115,0.674 2.097,0.696 2.059,0.736 1.982,0.79 1.686,1.002 1.506,1.404 1.442,1.571 1.406,1.532 1.375,1.501 1.347,1.471 1.208,1.324 1.051,1.159 0.696,1.159 L -0.05,1.157 -1.277,1.159 -1.268,-0.003 C -0.953,-0.002 -0.473,0 0,0" />
      </g>
      <g
         transform="translate(53.5108,548.959)"
         id="g318">
        <path
           inkscape:connector-curvature="0"
           id="path320"
           style="fill:#ffffff;fill-opacity:1;fill-rule:nonzero;stroke:none"
           d="m 0,0 c 0.034,-0.002 0.186,-0.022 0.387,-0.022 0.343,0 0.924,0.057 0.953,0.445 C 1.357,0.636 1.169,0.79 1.167,0.791 1.097,0.847 1.07,0.941 1.1,1.027 c 0.031,0.081 0.109,0.138 0.197,0.138 0.001,0 0.003,0 0.004,-0.001 l 10.034,-0.175 -0.033,7.21 c -0.088,0.059 -0.309,0.163 -0.466,0.348 -0.084,0.099 -0.203,0.177 -0.299,0.236 l 0.02,-6.134 c 0,-0.038 -0.01,-0.075 -0.029,-0.107 C 10.474,2.449 9.931,1.638 7.313,1.638 6.516,1.638 5.596,1.715 4.58,1.866 3.732,1.999 2.989,2.066 2.368,2.066 1.365,2.066 0.928,1.891 0.764,1.793 L 0.765,1.788 C 0.836,1.699 0.944,1.36 0.745,0.936 0.601,0.63 0.289,0.454 -0.111,0.454 c -0.438,0 -0.75,0.176 -0.894,0.482 -0.183,0.389 -0.107,0.707 -0.019,0.858 -0.161,0.095 -0.597,0.272 -1.604,0.272 -0.62,0 -1.364,-0.067 -2.211,-0.199 -1.018,-0.152 -1.935,-0.229 -2.734,-0.229 -2.617,0 -3.24,0.811 -3.294,0.904 -0.019,0.032 -0.029,0.069 -0.029,0.107 l 0.02,6.134 c -0.096,-0.059 -0.136,-0.137 -0.221,-0.236 -0.156,-0.185 -0.398,-0.289 -0.488,-0.348 l -0.005,-0.07 -0.029,-7.14 10.058,0.175 c 10e-4,0.001 0.003,0.001 0.004,0.001 0.089,0 0.167,-0.057 0.196,-0.138 0.031,-0.086 0.003,-0.18 -0.067,-0.236 0,0 -0.189,-0.157 -0.173,-0.368 0.03,-0.388 0.61,-0.445 0.954,-0.445 0.201,0 0.352,0.02 0.358,0.02 z" />
      </g>
      <g
         transform="translate(54.9065,555.806)"
         id="g322">
        <path
           inkscape:connector-curvature="0"
           id="path324"
           style="fill:#66686e;fill-opacity:1;fill-rule:nonzero;stroke:none"
           d="M 0,0 -0.173,0.38 C 0.721,0.787 1.943,1.341 3.754,0.867 4.973,0.547 6.115,0.494 6.662,0.731 L 6.828,0.347 C 6.067,0.018 4.687,0.19 3.648,0.462 1.982,0.899 0.884,0.4 0,0" />
      </g>
      <g
         transform="translate(54.9065,554.059)"
         id="g326">
        <path
           inkscape:connector-curvature="0"
           id="path328"
           style="fill:#66686e;fill-opacity:1;fill-rule:nonzero;stroke:none"
           d="M 0,0 -0.173,0.38 C 0.721,0.786 1.943,1.341 3.754,0.866 4.973,0.547 6.115,0.494 6.662,0.73 L 6.828,0.346 C 6.067,0.017 4.687,0.191 3.648,0.463 1.982,0.899 0.884,0.4 0,0" />
      </g>
      <g
         transform="translate(54.9065,552.594)"
         id="g330">
        <path
           inkscape:connector-curvature="0"
           id="path332"
           style="fill:#66686e;fill-opacity:1;fill-rule:nonzero;stroke:none"
           d="M 0,0 -0.173,0.38 C 0.721,0.786 1.943,1.342 3.754,0.867 4.973,0.546 6.115,0.494 6.662,0.73 L 6.828,0.347 C 6.067,0.018 4.687,0.19 3.648,0.464 1.982,0.899 0.884,0.401 0,0" />
      </g>
      <g
         transform="translate(42.9097,557.9)"
         id="g334">
        <path
           inkscape:connector-curvature="0"
           id="path336"
           style="fill:#231f20;fill-opacity:1;fill-rule:nonzero;stroke:none"
           d="M 0,0 -0.218,0.197 0.592,1.093 0.81,0.896 Z" />
      </g>
      <g
         transform="translate(63.8201,557.9)"
         id="g338">
        <path
           inkscape:connector-curvature="0"
           id="path340"
           style="fill:#231f20;fill-opacity:1;fill-rule:nonzero;stroke:none"
           d="M 0,0 -0.809,0.896 -0.591,1.093 0.218,0.197 Z" />
      </g>
      <g
         transform="translate(50.8559,535.335)"
         id="g342">
        <path
           inkscape:connector-curvature="0"
           id="path344"
           style="fill:#ed1c24;fill-opacity:1;fill-rule:nonzero;stroke:none"
           d="m 0,0 c 0,0 0.423,-0.166 0.536,-0.134 0.121,0.033 0.171,0.221 0.171,0.221 L 0.722,0.29 c 0,0 0.087,0.131 0.168,0.179 0.085,0.053 0.237,0.105 0.334,0.119 0.103,0.016 0.137,0 0.222,0.067 C 1.529,0.725 1.715,1.258 1.345,1.53 0.975,1.801 0.689,1.968 0.423,1.801 0.151,1.629 -0.134,1.278 -0.199,1.211 -0.266,1.143 -0.417,0.725 -0.503,0.725 -0.52,0.642 -1.064,0.543 -1.145,0.496 -1.225,0.443 -1.632,0.246 -1.857,0.022 c -0.225,-0.227 -0.123,-0.541 0.058,-0.965 0.174,-0.42 0.741,-0.36 0.825,-0.295 0.084,0.069 0.076,0.104 0.116,0.197 0.036,0.096 0.12,0.232 0.187,0.302 0.069,0.074 0.219,0.124 0.219,0.124 l 0.202,-0.026 c 0,0 0.188,0.003 0.25,0.111 C 0.058,-0.42 0,0 0,0" />
      </g>
      <g
         transform="translate(55.5845,535.264)"
         id="g346">
        <path
           inkscape:connector-curvature="0"
           id="path348"
           style="fill:#ed1c24;fill-opacity:1;fill-rule:nonzero;stroke:none"
           d="M 0,0 C 0,0 -0.029,-0.449 0.037,-0.551 0.11,-0.655 0.302,-0.642 0.302,-0.642 l 0.202,0.046 c 0,0 0.153,-0.041 0.229,-0.104 C 0.809,-0.762 0.906,-0.888 0.954,-0.981 1,-1.072 0.995,-1.111 1.09,-1.17 1.179,-1.226 1.757,-1.239 1.896,-0.803 2.041,-0.371 2.116,-0.048 1.869,0.154 1.623,0.36 1.193,0.521 1.106,0.567 1.018,0.605 0.57,0.621 0.538,0.702 0.454,0.688 0.19,1.174 0.118,1.236 0.042,1.299 -0.277,1.623 -0.565,1.767 -0.851,1.914 -1.123,1.717 -1.473,1.42 -1.823,1.121 -1.592,0.605 -1.503,0.547 -1.405,0.486 -1.376,0.503 -1.274,0.493 -1.173,0.487 -1.011,0.451 -0.925,0.409 -0.831,0.365 -0.737,0.24 -0.737,0.24 l 0.034,-0.2 c 0,0 0.067,-0.175 0.188,-0.201 C -0.389,-0.181 0,0 0,0" />
      </g>
      <g
         transform="translate(49.3433,530.896)"
         id="g350">
        <path
           inkscape:connector-curvature="0"
           id="path352"
           style="fill:#ed1c24;fill-opacity:1;fill-rule:nonzero;stroke:none"
           d="M 0,0 C 0,0 0.29,0.352 0.297,0.476 0.301,0.596 0.139,0.699 0.139,0.699 l -0.186,0.078 c 0,0 -0.1,0.122 -0.125,0.216 -0.02,0.098 -0.022,0.258 -0.007,0.356 0.014,0.1 0.042,0.131 0.005,0.231 -0.039,0.098 -0.493,0.442 -0.864,0.171 -0.367,-0.266 -0.614,-0.486 -0.541,-0.793 0.076,-0.31 0.326,-0.69 0.368,-0.773 0.041,-0.082 0.397,-0.359 0.372,-0.437 0.07,-0.042 -0.002,-0.591 0.017,-0.682 0.023,-0.093 0.089,-0.542 0.231,-0.824 0.144,-0.278 0.474,-0.284 0.93,-0.246 0.455,0.045 0.572,0.601 0.535,0.699 -0.036,0.099 -0.073,0.104 -0.152,0.166 -0.079,0.068 -0.181,0.19 -0.226,0.276 -0.047,0.084 -0.05,0.246 -0.05,0.246 l 0.087,0.181 c 0,0 0.054,0.184 -0.029,0.274 C 0.421,-0.071 0,0 0,0" />
      </g>
      <g
         transform="translate(53.1521,528.134)"
         id="g354">
        <path
           inkscape:connector-curvature="0"
           id="path356"
           style="fill:#ed1c24;fill-opacity:1;fill-rule:nonzero;stroke:none"
           d="M 0,0 C 0,0 -0.244,0.38 -0.356,0.42 -0.472,0.465 -0.618,0.343 -0.618,0.343 L -0.754,0.19 c 0,0 -0.146,-0.057 -0.244,-0.048 -0.097,0.005 -0.248,0.051 -0.339,0.1 -0.091,0.047 -0.109,0.076 -0.218,0.076 -0.106,-0.008 -0.573,-0.336 -0.427,-0.768 0.133,-0.435 0.269,-0.737 0.585,-0.759 0.317,-0.022 0.752,0.094 0.849,0.11 0.095,0.015 0.461,0.267 0.527,0.214 0.065,0.059 0.567,-0.182 0.659,-0.188 0.09,-0.009 0.542,-0.087 0.856,-0.037 0.311,0.048 0.413,0.363 0.518,0.806 C 2.115,0.142 1.622,0.426 1.516,0.422 1.409,0.42 1.392,0.385 1.303,0.334 1.217,0.28 1.071,0.217 0.976,0.201 0.877,0.181 0.728,0.227 0.728,0.227 L 0.583,0.37 c 0,0 -0.16,0.106 -0.268,0.053 C 0.201,0.374 0,0 0,0" />
      </g>
      <g
         transform="translate(57.011,530.784)"
         id="g358">
        <path
           inkscape:connector-curvature="0"
           id="path360"
           style="fill:#ed1c24;fill-opacity:1;fill-rule:nonzero;stroke:none"
           d="M 0,0 C 0,0 -0.44,-0.107 -0.513,-0.207 -0.59,-0.305 -0.52,-0.482 -0.52,-0.482 l 0.105,-0.171 c 0,0 0.01,-0.16 -0.027,-0.251 -0.039,-0.086 -0.134,-0.215 -0.202,-0.289 -0.074,-0.074 -0.113,-0.079 -0.136,-0.186 -0.031,-0.102 0.137,-0.645 0.593,-0.645 0.454,0 0.787,0.029 0.907,0.326 0.118,0.291 0.137,0.75 0.157,0.841 0.009,0.092 -0.11,0.524 -0.045,0.572 -0.031,0.078 0.347,0.473 0.384,0.561 0.034,0.089 0.249,0.492 0.301,0.8 C 1.562,1.39 1.299,1.589 0.906,1.823 0.513,2.057 0.094,1.676 0.064,1.576 0.034,1.472 0.064,1.447 0.09,1.348 0.113,1.247 0.125,1.089 0.11,0.994 0.097,0.897 0.005,0.768 0.005,0.768 l -0.18,-0.093 c 0,0 -0.148,-0.127 -0.134,-0.246 C -0.292,0.312 0,0 0,0" />
      </g>
      <g
         transform="translate(50.667,538.395)"
         id="g362">
        <path
           inkscape:connector-curvature="0"
           id="path364"
           style="fill:#ed1c24;fill-opacity:1;fill-rule:nonzero;stroke:none"
           d="M 0,0 C -0.06,0.152 0.092,0.359 0.346,0.46 0.602,0.562 0.855,0.521 0.917,0.373 0.977,0.219 0.822,0.019 0.573,-0.086 0.312,-0.191 0.061,-0.155 0,0" />
      </g>
      <g
         transform="translate(52.8185,539.36)"
         id="g366">
        <path
           inkscape:connector-curvature="0"
           id="path368"
           style="fill:#ed1c24;fill-opacity:1;fill-rule:nonzero;stroke:none"
           d="M 0,0 C 0,0.162 0.223,0.293 0.496,0.293 0.767,0.293 0.993,0.162 0.993,0 0.993,-0.162 0.767,-0.294 0.496,-0.294 0.223,-0.294 0,-0.162 0,0" />
      </g>
      <g
         transform="translate(54.5824,538.873)"
         id="g370">
        <path
           inkscape:connector-curvature="0"
           id="path372"
           style="fill:#ed1c24;fill-opacity:1;fill-rule:nonzero;stroke:none"
           d="M 0,0 C 0.074,0.143 0.332,0.166 0.574,0.044 0.819,-0.075 0.962,-0.293 0.891,-0.439 0.819,-0.583 0.563,-0.604 0.319,-0.485 0.074,-0.36 -0.07,-0.146 0,0" />
      </g>
    </g>
  </g>
</svg>
